<?xml version="1.0" encoding="UTF-8"?> <svg xmlns="http://www.w3.org/2000/svg" width="1056" height="750" viewBox="0 0 1056 750" fill="none"> <path d="M833.418 172.467C829.383 173.695 827.497 176.341 827.058 177.511C827.058 177.511 821.576 195.712 821.576 200.317C821.576 204.922 806.884 210.405 806.884 210.405L814.778 220.053L813.243 233.869C813.243 233.869 834.514 238.474 830.786 247.245C827.058 256.017 823.55 260.403 823.55 260.403C823.516 265.678 859.694 262.471 870.917 250.754L877.715 220.053V194.835C870.332 193.665 856.268 190.493 859.075 187.16C862.584 182.993 859.294 180.8 859.075 177.511C858.856 174.222 838.462 170.932 833.418 172.467Z" fill="white"></path> <path d="M833.394 227.552L837.524 225.782L832.804 215.161C832.214 213.981 831.624 213.391 830.444 213.391C829.264 213.391 828.674 213.391 827.494 213.981C826.904 213.981 826.904 214.571 826.314 215.161C824.544 216.931 821.594 219.292 815.104 219.292V224.012C822.774 224.012 826.904 221.062 829.264 219.292L833.394 227.552Z" fill="#263D7D"></path> <path d="M297.082 480.072C300.032 480.072 302.392 479.482 302.392 479.482C315.962 479.482 328.942 470.042 333.072 457.062C335.432 449.982 337.792 431.102 312.422 413.992C302.982 407.502 292.362 401.602 282.332 395.702C251.651 378.002 225.101 362.072 226.871 337.292C227.461 329.032 230.411 323.132 235.721 319.002C248.111 310.152 269.351 315.462 269.941 316.052L270.532 313.102C269.352 313.102 247.521 307.202 233.951 316.642C228.051 320.772 224.511 327.852 223.921 336.702C222.151 363.252 251.061 379.772 281.152 397.472C291.182 403.372 301.212 409.272 310.652 415.762C327.172 426.972 334.252 441.722 330.122 455.882C326.582 467.682 314.782 476.532 301.802 476.532C301.212 476.532 283.512 480.072 259.911 464.142L258.141 466.502C275.842 478.302 289.412 480.072 297.082 480.072Z" fill="#21315F"></path> <path d="M199.731 403.963C199.731 396.883 205.631 390.983 212.711 390.983H595.033H614.503C621.583 390.983 627.483 396.883 627.483 403.963H199.731Z" fill="#386FD6"></path> <path d="M197.962 405.733H629.254V403.963C629.254 396.293 622.764 389.803 615.094 389.803H212.712C205.042 389.803 198.552 396.293 198.552 403.963V405.733H197.962ZM626.304 402.783H201.502C202.092 396.883 206.812 392.753 212.712 392.753H614.504C620.404 392.753 625.124 396.883 626.304 402.783Z" fill="#21315F"></path> <path d="M321.861 148.492C321.861 146.132 319.501 144.952 317.731 146.722C312.421 150.852 301.801 161.472 301.801 212.802C301.801 229.322 301.211 331.392 301.801 350.272C301.801 351.452 302.981 352.632 304.161 352.632H318.911C320.091 352.632 321.271 351.452 321.271 350.272V148.492H321.861Z" fill="white"></path> <path d="M304.752 353.813H319.502C321.862 353.813 323.632 352.043 323.632 349.683V148.492C323.632 146.722 323.042 145.542 321.272 144.952C320.092 144.362 318.322 144.362 317.142 145.542C312.422 149.672 300.622 159.112 300.622 212.802C300.622 216.932 300.622 225.192 300.622 236.402C300.622 273.572 300.622 336.113 300.622 350.273C300.622 352.043 302.392 353.813 304.752 353.813ZM319.502 147.312C320.092 147.312 320.092 147.312 319.502 147.312C320.092 147.312 320.682 147.902 320.682 148.492V350.273C320.682 350.863 320.092 351.453 319.502 351.453H304.752C304.162 351.453 303.572 350.863 303.572 350.273C302.982 336.113 303.572 273.572 303.572 236.402C303.572 225.192 303.572 216.932 303.572 212.802C303.572 160.882 314.782 151.442 318.912 147.902C319.502 147.312 319.502 147.312 319.502 147.312Z" fill="#21315F"></path> <path d="M302.391 237.582L240.441 378.002C238.081 383.903 242.211 390.983 248.701 390.983H339.561C339.561 386.853 336.021 383.313 331.891 383.313H264.631C260.501 383.313 257.551 378.592 259.321 375.052L301.801 277.702L302.391 237.582Z" fill="#2E4C9B"></path> <path d="M248.702 392.163H341.332V390.983C341.332 386.263 337.202 382.133 332.482 382.133H265.222C263.452 382.133 262.272 381.543 261.092 379.773C259.912 378.003 259.912 376.823 260.502 375.643L303.572 277.702V230.502L239.262 377.413C238.082 380.953 238.082 384.493 239.852 387.443C242.212 390.393 245.162 392.163 248.702 392.163ZM337.792 389.213H248.702C246.342 389.213 243.982 388.033 242.212 385.673C240.442 383.313 240.442 380.953 241.622 378.593L300.622 244.662V277.112L258.142 373.873C256.962 376.233 257.552 379.183 258.732 380.953C259.912 382.723 262.272 384.493 265.222 384.493H332.482C334.842 385.083 337.202 386.853 337.792 389.213Z" fill="#21315F"></path> <path d="M369.653 240.532H391.483V243.482H369.653V240.532Z" fill="#21315F"></path> <path d="M387.952 184.491L389.427 187.046L370.522 197.961L369.047 195.406L387.952 184.491Z" fill="#21315F"></path> <path d="M370.597 288.523L389.509 299.427L388.035 301.983L369.124 291.079L370.597 288.523Z" fill="#21315F"></path> <path d="M235.722 736.134H1055.24V749.114H235.722V736.134Z" fill="#2E4C9B"></path> <path d="M848.145 511.933C855.815 511.933 863.485 511.343 871.155 510.163H871.745L872.335 508.983L908.325 424.613C944.315 350.272 905.375 287.732 885.905 263.542L885.315 262.362C878.235 253.512 872.925 248.792 872.925 248.792L872.335 248.202L871.155 248.792C870.565 248.792 840.475 267.082 815.105 255.872L813.925 255.282L804.485 278.882C792.684 285.372 775.574 298.352 763.774 321.952C742.534 364.432 744.894 422.843 771.444 496.593V497.183H772.034C772.034 497.183 809.205 511.933 848.145 511.933Z" fill="#2E4C9B"></path> <path d="M848.145 511.933C855.815 511.933 863.485 511.343 871.155 510.163H871.745L872.335 508.983L908.325 424.613C944.315 350.272 905.375 287.732 885.905 263.542L885.315 262.362C878.235 253.512 872.925 248.792 872.925 248.792L872.335 248.202L871.155 248.792C870.565 248.792 840.475 267.082 815.105 255.872L813.925 255.282L804.485 278.882C792.684 285.372 775.574 298.352 763.774 321.952C742.534 364.432 744.894 422.843 771.444 496.593V497.183H772.034C772.034 497.183 809.205 511.933 848.145 511.933ZM869.975 507.213C828.085 514.293 779.704 497.183 773.214 494.823C747.254 422.253 744.304 364.432 765.544 323.132C783.244 288.322 812.155 277.112 816.285 275.932C850.505 291.272 877.645 270.622 883.545 265.902C907.145 295.402 939.595 353.222 905.375 424.023L869.975 507.213ZM881.775 263.542C876.465 268.262 850.505 288.322 816.875 272.982H816.285H815.695C815.695 272.982 812.745 274.162 807.435 276.522L814.515 259.412C838.705 269.442 865.255 255.282 871.155 252.332C872.925 253.512 877.055 257.642 881.775 263.542Z" fill="#21315F"></path> <path d="M827.495 178.582C827.495 178.582 837.525 156.161 868.205 165.601C868.205 165.601 885.315 172.092 885.315 185.662C884.725 198.642 881.185 231.682 872.925 249.382H872.335C872.925 244.072 874.105 225.192 860.535 222.242C860.535 222.242 880.005 225.782 874.695 202.772C872.925 195.102 862.305 194.512 859.945 201.002C859.945 201.002 848.145 241.122 842.835 244.072C837.525 247.022 822.185 249.972 817.465 245.842C812.745 242.302 811.565 236.402 813.335 232.272C813.335 232.272 835.755 236.402 843.425 221.652C846.375 214.572 856.995 189.202 856.995 189.202C856.995 189.202 867.615 178.582 849.915 173.862C832.215 169.141 827.495 178.582 827.495 178.582Z" fill="#263D7D"></path> <path d="M871.745 250.561C872.335 250.561 872.925 249.971 873.515 249.381C882.365 231.091 885.905 197.461 885.905 185.071C886.495 170.911 868.795 163.831 868.205 163.831C837.525 154.391 826.315 176.221 825.725 177.401L828.675 178.581C828.675 177.991 832.805 170.321 849.325 175.041C854.635 176.811 858.175 178.581 858.175 180.941C858.765 183.891 855.225 186.841 855.225 186.841L854.635 187.431L841.065 219.881C833.985 233.451 812.745 229.911 812.745 229.911H811.565L810.975 231.091C808.615 236.401 810.385 242.301 815.105 246.431C821.005 251.741 836.935 247.611 842.245 245.251C848.145 242.301 858.175 208.081 860.535 201.591C861.715 198.051 864.075 197.461 866.435 197.461C868.795 197.461 871.745 199.231 872.925 202.771C874.695 209.851 874.105 214.571 871.155 217.521C867.615 221.651 860.535 220.471 860.535 220.471L859.945 223.421C872.335 225.781 871.155 243.481 870.565 248.791V249.971L871.745 250.561ZM865.845 194.511C862.305 194.511 858.765 196.871 857.585 199.821C851.685 219.291 844.015 240.531 841.065 241.711C835.755 244.661 821.595 247.021 817.465 243.481C813.925 240.531 812.745 236.401 813.335 232.861C818.055 233.451 836.935 234.631 844.015 221.061L857.585 189.201C858.765 188.021 861.715 184.481 861.125 180.351C860.535 176.811 856.995 173.861 849.915 172.091C842.835 170.321 837.525 170.321 833.985 171.501C839.885 166.191 849.915 161.471 867.025 166.781C867.025 166.781 882.955 173.271 882.955 185.071C882.365 195.691 880.005 222.831 873.515 241.121C873.515 234.631 871.745 226.961 866.435 222.241C868.795 221.651 871.155 220.471 872.925 218.701C876.465 215.161 877.055 209.261 875.285 201.001C874.105 197.461 870.565 194.511 865.845 194.511C865.845 194.511 866.435 194.511 865.845 194.511Z" fill="#21315F"></path> <path d="M823.954 261.182C830.444 257.052 831.034 246.432 831.034 246.432H828.084C828.084 246.432 827.494 255.872 822.184 259.412L823.954 261.182Z" fill="#21315F"></path> <path d="M813.924 231.682L816.874 218.702L815.694 218.112C815.694 218.112 810.384 215.752 808.614 211.032C812.154 209.852 821.594 206.312 823.954 197.462C825.134 190.972 826.904 179.762 828.674 177.402L826.314 175.632C823.954 179.762 821.594 195.692 821.594 197.462C819.234 206.902 806.844 209.262 806.844 209.262L805.664 209.852V211.032C806.844 216.342 811.564 219.292 813.334 220.472L810.974 231.092L813.924 231.682Z" fill="#21315F"></path> <path d="M818.054 228.142C826.314 228.142 828.084 223.422 828.674 222.832L825.724 221.652C825.724 221.652 823.364 226.372 813.924 224.602L813.334 227.552C815.694 228.142 816.874 228.142 818.054 228.142Z" fill="#21315F"></path> <path d="M826.452 203.238C825.519 202.946 825.236 201.197 825.82 199.331C826.404 197.465 827.633 196.189 828.566 196.481C829.499 196.772 829.782 198.522 829.198 200.388C828.615 202.254 827.385 203.53 826.452 203.238Z" fill="#21315F"></path> <path d="M556.094 390.982L555.504 393.932L523.643 385.672C518.923 386.262 506.533 388.032 504.173 392.162L503.583 392.752H461.103L478.213 362.662H495.323L488.243 355.582C483.523 357.942 476.443 361.482 474.083 360.892C473.493 360.892 472.903 360.302 472.903 359.712C472.313 358.532 471.133 356.172 487.653 343.782L488.243 343.192L528.363 372.102C537.803 371.512 548.424 372.102 559.634 372.102L556.094 390.982Z" fill="white"></path> <path d="M555.504 393.932L556.094 390.982L524.233 382.132C522.463 382.132 507.123 383.312 502.403 389.212H466.413L479.983 365.022H503.583L488.833 352.042L487.653 352.632C483.523 354.992 478.803 357.352 476.443 357.942C478.213 355.582 483.523 350.862 488.833 346.732L527.773 375.052H528.363C537.803 375.052 548.423 375.052 559.634 375.052V372.102C548.423 372.102 537.803 371.512 528.363 372.102L488.243 343.192L487.653 343.782C471.133 356.172 472.313 358.532 472.903 359.712C472.903 360.302 473.493 360.892 474.083 360.892C476.443 361.482 483.523 357.942 488.243 355.582L495.323 362.662H478.213L461.103 392.752H503.583L504.173 392.162C506.533 388.032 518.923 386.262 523.643 385.672L555.504 393.932Z" fill="#21315F"></path> <path d="M463.464 390.982H441.634C441.634 359.712 478.804 363.842 478.804 363.842L463.464 390.982Z" fill="white"></path> <path d="M440.452 392.752H464.642L481.162 362.662H478.802C478.212 362.662 459.332 360.892 448.122 370.922C442.812 375.642 439.862 382.722 439.862 391.572V392.752H440.452ZM462.872 389.802H443.402C443.402 382.722 446.352 376.822 450.482 372.692C458.742 365.612 471.132 365.022 476.442 365.022L462.872 389.802Z" fill="#21315F"></path> <path d="M526.593 374.462L529.543 373.872L526.003 358.532L511.253 360.892L511.843 363.842L523.643 362.072L526.593 374.462Z" fill="#21315F"></path> <path d="M841.655 526.683C855.815 526.683 865.255 524.323 865.255 524.323H865.845L872.335 508.983L869.385 507.803L863.485 521.373C857.585 522.553 816.874 531.403 774.984 503.673L773.214 495.413L770.264 496.003L772.034 505.443L772.624 506.033C798.584 522.553 823.955 526.683 841.655 526.683Z" fill="#21315F"></path> <path d="M637.597 377.786C615.738 376.012 587.119 374.094 559.866 373.492C559.783 373.649 559.683 373.852 559.569 374.1C559.162 374.982 558.608 376.371 558.05 378.206C556.973 381.753 555.889 386.937 555.818 393.308C555.882 393.334 555.951 393.363 556.025 393.393C556.566 393.617 557.37 393.946 558.419 394.361C560.516 395.192 563.592 396.372 567.496 397.765C575.304 400.551 586.423 404.187 599.657 407.584C626.119 414.376 660.969 420.195 694.698 416.398L694.759 416.381C694.85 416.356 694.986 416.317 695.165 416.266C695.525 416.165 696.059 416.013 696.754 415.812C698.146 415.41 700.185 414.814 702.773 414.034C707.95 412.475 715.322 410.185 724.102 407.261C741.664 401.413 764.843 393.036 787.331 382.914C809.837 372.785 831.578 360.94 846.318 348.177C861.09 335.386 868.475 322.007 863.312 308.655C863.306 308.643 863.298 308.629 863.288 308.613C863.251 308.549 863.192 308.448 863.107 308.316C862.939 308.053 862.674 307.664 862.297 307.187C861.544 306.232 860.346 304.924 858.591 303.554C855.087 300.82 849.329 297.814 840.373 296.911C822.428 295.102 791.548 301.735 740.294 336.199C740.292 336.2 740.29 336.201 740.288 336.202L675.398 381.035L675.092 381.247L674.722 381.207L674.83 380.213C674.722 381.207 674.722 381.207 674.722 381.207L674.72 381.206L674.712 381.206L674.679 381.202L674.548 381.188C674.432 381.176 674.259 381.157 674.031 381.133C673.575 381.085 672.898 381.014 672.017 380.923C670.255 380.742 667.676 380.482 664.41 380.166C657.876 379.533 648.594 378.678 637.597 377.786Z" fill="#2E4C9B" stroke="#21315F" stroke-width="2"></path> <path d="M825.905 508.916L828.69 509.891L823.62 524.369L820.836 523.394L825.905 508.916Z" fill="#21315F"></path> <path d="M845.194 567.393L957.295 307.202C957.295 307.202 902.424 281.242 930.155 226.372C957.885 172.091 1005.08 196.281 1005.08 196.281L1022.78 203.951L858.174 587.453H642.823V567.983H845.194V567.393Z" fill="#386FD6"></path> <path d="M858.764 589.223L859.354 588.633V587.453L1025.14 202.771L1005.67 194.511C1005.08 193.921 986.204 184.481 964.964 191.561C950.214 196.281 937.824 208.081 928.974 225.781C920.714 242.302 918.944 258.232 923.664 272.392C930.744 293.632 950.214 304.842 955.524 307.792L844.604 566.213H641.643V588.633H858.174L858.764 589.223ZM856.994 585.683H644.593V569.163H846.374L846.964 567.983L959.064 306.612L957.884 306.022C957.884 306.022 934.284 294.812 926.614 271.802C921.894 258.232 923.664 243.482 931.924 227.551C943.134 205.131 959.064 193.921 978.534 192.741C992.694 191.561 1004.49 197.461 1004.49 197.461L1021.01 204.541L857.584 585.093L856.994 584.503V585.683Z" fill="#21315F"></path> <path d="M662.885 587.453H685.305V747.934H662.885V587.453Z" fill="#386FD6"></path> <path d="M661.113 749.114H686.483V585.683H661.113V749.114ZM683.533 746.164H664.063V588.633H683.533V746.164Z" fill="#21315F"></path> <path d="M824.544 587.453C824.544 587.453 861.124 687.754 910.684 747.934H934.284C934.284 747.934 865.844 661.794 845.784 587.453H824.544Z" fill="#386FD6"></path> <path d="M910.685 749.114H937.825L936.055 746.754C935.465 746.164 867.615 660.024 847.555 586.863L846.965 585.683H822.185L822.775 587.453C823.955 588.633 860.535 688.934 910.685 749.114ZM931.925 746.164H911.865C867.025 691.884 832.215 603.383 826.905 588.633H845.195C863.485 654.714 920.715 731.414 931.925 746.164Z" fill="#21315F"></path> <path d="M571.433 707.814L584.413 747.344H465.823L555.503 703.094C555.503 703.684 558.453 709.584 571.433 707.814Z" fill="#263D7D"></path> <path d="M459.333 749.114H586.774L572.614 706.634H571.434C560.224 708.404 557.274 703.094 557.274 703.094L556.684 701.914L555.504 702.504L459.333 749.114ZM582.644 746.164H472.313L554.914 705.454C556.684 707.224 560.814 710.764 570.254 709.584L582.644 746.164Z" fill="#21315F"></path> <path d="M528.953 644.684L516.563 693.064L433.372 605.153L516.563 630.523C515.973 630.523 515.973 644.094 528.953 644.684Z" fill="#263D7D"></path> <path d="M517.153 696.014L530.723 643.504H528.953C517.743 642.914 517.743 631.704 517.743 631.114V629.934L516.563 629.343L427.472 602.203L517.153 696.014ZM526.593 645.864L515.383 690.114L437.503 608.103L514.793 631.704C514.793 636.424 517.743 644.684 526.593 645.864Z" fill="#21315F"></path> <path d="M225.101 403.962H578.513V442.313H225.101V403.962Z" fill="#2E4C9B"></path> <path d="M223.332 444.083H580.283V402.782H223.332V444.083ZM577.333 441.133H226.872V405.732H577.333V441.133Z" fill="#21315F"></path> <path d="M236.902 442.904H259.912V747.935H236.902V442.904Z" fill="#386FD6"></path> <path d="M235.132 749.114H261.092V441.133H235.132V749.114ZM258.142 746.164H238.082V444.083H258.142V746.164Z" fill="#21315F"></path> <path d="M750.203 426.972C747.922 426.972 746.073 425.123 746.073 422.842C746.073 420.561 747.922 418.712 750.203 418.712C752.484 418.712 754.333 420.561 754.333 422.842C754.333 425.123 752.484 426.972 750.203 426.972Z" fill="#20315F"></path> <path d="M756.695 462.963C754.414 462.963 752.565 461.114 752.565 458.833C752.565 456.552 754.414 454.703 756.695 454.703C758.976 454.703 760.825 456.552 760.825 458.833C760.825 461.114 758.976 462.963 756.695 462.963Z" fill="#20315F"></path> <path d="M639.284 568.163H845.708L865.121 521.573C864.64 521.644 864.068 521.724 863.409 521.809C861.168 522.099 857.933 522.445 853.948 522.676C845.981 523.138 835 523.138 822.953 521.29C810.869 519.436 798.553 514.869 789.222 510.939C785.692 509.451 782.574 508.049 780.06 506.917C779.251 506.553 778.504 506.217 777.826 505.915C776.423 505.291 775.335 504.823 774.584 504.547C774.294 504.44 774.083 504.373 773.938 504.336C773.897 504.353 773.86 504.366 773.831 504.376C773.712 504.418 773.577 504.452 773.446 504.48C773.177 504.54 772.81 504.603 772.365 504.671C771.469 504.806 770.186 504.967 768.578 505.15C765.358 505.517 760.797 505.975 755.349 506.492C744.449 507.524 729.975 508.79 715.522 510.019C701.068 511.248 686.634 512.439 675.812 513.324C670.402 513.766 665.894 514.132 662.739 514.387C661.162 514.514 659.923 514.614 659.078 514.682L658.151 514.757L582.959 590.321L555.428 703.374L555.62 703.567L555.701 703.647L555.761 703.744C558.446 708.04 563.327 709.174 566.713 709.174C568.124 709.174 569.399 709.032 570.323 708.89C570.783 708.819 571.153 708.749 571.406 708.697C571.467 708.684 571.521 708.673 571.568 708.662C571.594 708.657 571.618 708.651 571.64 708.646L571.788 708.43C579.989 696.421 595.438 664.504 609.465 634.014C623.476 603.558 636.005 574.667 638.355 568.792L638.607 568.163H639.284ZM773.774 504.301C773.774 504.301 773.774 504.301 773.776 504.301L773.774 504.301Z" fill="#2A7FEE" stroke="#21315F" stroke-width="2"></path> <path d="M658.638 515.944L658.892 515.691L659.25 515.657L775.284 504.743L773.898 503.951C772.472 503.136 769.165 501.986 764.313 500.589C759.507 499.205 753.3 497.609 746.171 495.887C731.914 492.442 714.003 488.499 696.306 484.738C670.53 479.261 645.169 474.164 632.292 471.576C627.717 470.656 624.718 470.053 623.835 469.863H623.767L623.47 470.16L623.41 470.22L623.341 470.269C622.554 470.826 621.434 471.906 620.002 473.509C618.583 475.097 616.901 477.147 614.993 479.6C611.178 484.504 606.487 490.98 601.237 498.502C590.737 513.543 578.022 532.725 565.634 551.787C541.386 589.096 518.414 625.904 515.793 630.212V630.523V631.093C516.078 638.093 519.261 641.462 522.35 643.141C525.519 644.863 528.707 644.863 528.953 644.863H529.13L658.638 515.944Z" fill="#2A7FEE" stroke="#21315F" stroke-width="2"></path> <path d="M774.395 532.583C773.091 532.583 772.035 531.527 772.035 530.223C772.035 528.92 773.091 527.863 774.395 527.863C775.698 527.863 776.755 528.92 776.755 530.223C776.755 531.527 775.698 532.583 774.395 532.583Z" fill="white"></path> <path d="M754.924 513.113C753.62 513.113 752.564 512.056 752.564 510.753C752.564 509.449 753.62 508.393 754.924 508.393C756.227 508.393 757.284 509.449 757.284 510.753C757.284 512.056 756.227 513.113 754.924 513.113Z" fill="white"></path> <path d="M793.864 550.873C792.561 550.873 791.504 549.816 791.504 548.513C791.504 547.209 792.561 546.153 793.864 546.153C795.168 546.153 796.224 547.209 796.224 548.513C796.224 549.816 795.168 550.873 793.864 550.873Z" fill="white"></path> <path d="M754.924 551.463C753.62 551.463 752.564 550.406 752.564 549.103C752.564 547.8 753.62 546.743 754.924 546.743C756.227 546.743 757.284 547.8 757.284 549.103C757.284 550.406 756.227 551.463 754.924 551.463Z" fill="white"></path> <path d="M735.454 532.583C734.151 532.583 733.094 531.527 733.094 530.223C733.094 528.92 734.151 527.863 735.454 527.863C736.758 527.863 737.814 528.92 737.814 530.223C737.814 531.527 736.758 532.583 735.454 532.583Z" fill="white"></path> <path d="M716.575 513.702C715.271 513.702 714.215 512.646 714.215 511.342C714.215 510.039 715.271 508.982 716.575 508.982C717.878 508.982 718.935 510.039 718.935 511.342C718.935 512.646 717.878 513.702 716.575 513.702Z" fill="white"></path> <path d="M697.104 493.642C695.801 493.642 694.744 492.586 694.744 491.282C694.744 489.979 695.801 488.922 697.104 488.922C698.407 488.922 699.464 489.979 699.464 491.282C699.464 492.586 698.407 493.642 697.104 493.642Z" fill="white"></path> <path d="M716.575 551.463C715.271 551.463 714.215 550.406 714.215 549.103C714.215 547.8 715.271 546.743 716.575 546.743C717.878 546.743 718.935 547.8 718.935 549.103C718.935 550.406 717.878 551.463 716.575 551.463Z" fill="white"></path> <path d="M697.104 532.583C695.801 532.583 694.744 531.527 694.744 530.223C694.744 528.92 695.801 527.863 697.104 527.863C698.407 527.863 699.464 528.92 699.464 530.223C699.464 531.527 698.407 532.583 697.104 532.583Z" fill="white"></path> <path d="M678.225 513.113C676.921 513.113 675.865 512.056 675.865 510.753C675.865 509.449 676.921 508.393 678.225 508.393C679.528 508.393 680.585 509.449 680.585 510.753C680.585 512.056 679.528 513.113 678.225 513.113Z" fill="white"></path> <path d="M658.755 493.642C657.452 493.642 656.395 492.586 656.395 491.282C656.395 489.979 657.452 488.922 658.755 488.922C660.058 488.922 661.115 489.979 661.115 491.282C661.115 492.586 660.058 493.642 658.755 493.642Z" fill="white"></path> <path d="M678.225 551.463C676.921 551.463 675.865 550.406 675.865 549.103C675.865 547.8 676.921 546.743 678.225 546.743C679.528 546.743 680.585 547.8 680.585 549.103C680.585 550.406 679.528 551.463 678.225 551.463Z" fill="white"></path> <path d="M658.755 532.583C657.452 532.583 656.395 531.527 656.395 530.223C656.395 528.92 657.452 527.863 658.755 527.863C660.058 527.863 661.115 528.92 661.115 530.223C661.115 531.527 660.058 532.583 658.755 532.583Z" fill="white"></path> <path d="M639.284 513.113C637.981 513.113 636.924 512.056 636.924 510.753C636.924 509.449 637.981 508.393 639.284 508.393C640.587 508.393 641.644 509.449 641.644 510.753C641.644 512.056 640.587 513.113 639.284 513.113Z" fill="white"></path> <path d="M639.284 551.463C637.981 551.463 636.924 550.406 636.924 549.103C636.924 547.8 637.981 546.743 639.284 546.743C640.587 546.743 641.644 547.8 641.644 549.103C641.644 550.406 640.587 551.463 639.284 551.463Z" fill="white"></path> <path d="M620.405 532.583C619.101 532.583 618.045 531.527 618.045 530.223C618.045 528.92 619.101 527.863 620.405 527.863C621.708 527.863 622.765 528.92 622.765 530.223C622.765 531.527 621.708 532.583 620.405 532.583Z" fill="white"></path> <path d="M620.405 570.933C619.101 570.933 618.045 569.877 618.045 568.573C618.045 567.27 619.101 566.213 620.405 566.213C621.708 566.213 622.765 567.27 622.765 568.573C622.765 569.877 621.708 570.933 620.405 570.933Z" fill="white"></path> <path d="M851.095 532.583C849.792 532.583 848.735 531.527 848.735 530.223C848.735 528.92 849.792 527.863 851.095 527.863C852.399 527.863 853.455 528.92 853.455 530.223C853.455 531.527 852.399 532.583 851.095 532.583Z" fill="white"></path> <path d="M831.626 552.052C830.322 552.052 829.266 550.996 829.266 549.692C829.266 548.389 830.322 547.332 831.626 547.332C832.929 547.332 833.986 548.389 833.986 549.692C833.986 550.996 832.929 552.052 831.626 552.052Z" fill="white"></path> <path d="M812.745 532.583C811.442 532.583 810.385 531.527 810.385 530.223C810.385 528.92 811.442 527.863 812.745 527.863C814.048 527.863 815.105 528.92 815.105 530.223C815.105 531.527 814.048 532.583 812.745 532.583Z" fill="white"></path> <path d="M619.815 609.284C618.511 609.284 617.455 608.227 617.455 606.923C617.455 605.62 618.511 604.563 619.815 604.563C621.118 604.563 622.175 605.62 622.175 606.923C622.175 608.227 621.118 609.284 619.815 609.284Z" fill="white"></path> <path d="M620.405 494.233C619.101 494.233 618.045 493.176 618.045 491.873C618.045 490.57 619.101 489.513 620.405 489.513C621.708 489.513 622.765 490.57 622.765 491.873C622.765 493.176 621.708 494.233 620.405 494.233Z" fill="white"></path> <path d="M600.344 513.113C599.04 513.113 597.984 512.056 597.984 510.753C597.984 509.449 599.04 508.393 600.344 508.393C601.647 508.393 602.704 509.449 602.704 510.753C602.704 512.056 601.647 513.113 600.344 513.113Z" fill="white"></path> <path d="M600.344 551.463C599.04 551.463 597.984 550.406 597.984 549.103C597.984 547.8 599.04 546.743 600.344 546.743C601.647 546.743 602.704 547.8 602.704 549.103C602.704 550.406 601.647 551.463 600.344 551.463Z" fill="white"></path> <path d="M600.344 589.813C599.04 589.813 597.984 588.756 597.984 587.453C597.984 586.15 599.04 585.093 600.344 585.093C601.647 585.093 602.704 586.15 602.704 587.453C602.704 588.756 601.647 589.813 600.344 589.813Z" fill="white"></path> <path d="M600.344 628.753C599.04 628.753 597.984 627.696 597.984 626.393C597.984 625.089 599.04 624.033 600.344 624.033C601.647 624.033 602.704 625.089 602.704 626.393C602.704 627.696 601.647 628.753 600.344 628.753Z" fill="white"></path> <path d="M582.054 532.583C580.751 532.583 579.694 531.527 579.694 530.223C579.694 528.92 580.751 527.863 582.054 527.863C583.358 527.863 584.414 528.92 584.414 530.223C584.414 531.527 583.358 532.583 582.054 532.583Z" fill="white"></path> <path d="M580.874 570.933C579.571 570.933 578.514 569.877 578.514 568.573C578.514 567.27 579.571 566.213 580.874 566.213C582.178 566.213 583.234 567.27 583.234 568.573C583.234 569.877 582.178 570.933 580.874 570.933Z" fill="white"></path> <path d="M580.874 609.284C579.571 609.284 578.514 608.227 578.514 606.923C578.514 605.62 579.571 604.563 580.874 604.563C582.178 604.563 583.234 605.62 583.234 606.923C583.234 608.227 582.178 609.284 580.874 609.284Z" fill="white"></path> <path d="M580.874 647.633C579.571 647.633 578.514 646.577 578.514 645.273C578.514 643.97 579.571 642.913 580.874 642.913C582.178 642.913 583.234 643.97 583.234 645.273C583.234 646.577 582.178 647.633 580.874 647.633Z" fill="white"></path> <path d="M580.874 686.573C579.571 686.573 578.514 685.516 578.514 684.213C578.514 682.91 579.571 681.853 580.874 681.853C582.178 681.853 583.234 682.91 583.234 684.213C583.234 685.516 582.178 686.573 580.874 686.573Z" fill="white"></path> <path d="M560.814 590.403C561.404 590.403 561.994 590.403 562.584 589.813C563.764 588.633 563.764 587.453 562.584 586.273C561.994 585.683 561.404 585.683 560.814 585.683" fill="white"></path> <path d="M560.814 705.453C561.404 705.453 561.994 705.453 562.584 704.863C563.764 703.683 563.764 702.503 562.584 701.323C561.994 700.733 561.404 700.733 560.814 700.733" fill="white"></path> <path d="M521.284 628.753C519.98 628.753 518.924 627.696 518.924 626.393C518.924 625.09 519.98 624.033 521.284 624.033C522.587 624.033 523.644 625.09 523.644 626.393C523.644 627.696 522.587 628.753 521.284 628.753Z" fill="white"></path> <path d="M537.214 345.552L538.984 343.192C538.984 343.192 514.204 320.772 478.803 329.032L479.393 331.982C513.024 323.722 536.624 344.962 537.214 345.552Z" fill="#21315F"></path> <path d="M537.803 442.903H560.813V747.934H537.803V442.903Z" fill="#386FD6"></path> <path d="M536.623 749.114H562.583V441.133H536.623V749.114ZM559.633 746.164H539.573V444.083H559.633V746.164Z" fill="#21315F"></path> <path fill-rule="evenodd" clip-rule="evenodd" d="M517.418 74.3828C537.516 74.5624 553.663 91.0006 553.484 111.099C553.304 131.197 536.866 147.344 516.768 147.164C496.67 146.985 480.523 130.547 480.702 110.449C480.882 90.3504 497.32 74.2033 517.418 74.3828ZM501.207 93.1618V105.646C503.111 103.375 505.382 102.235 508.029 102.235C509.388 102.235 510.607 102.492 511.698 103.008C512.799 103.524 513.612 104.178 514.167 104.971C514.722 105.775 515.099 106.657 515.307 107.629C515.506 108.601 515.615 110.098 515.615 112.141V125.487H509.705V113.489C509.705 111.099 509.596 109.592 509.378 108.948C509.15 108.303 508.763 107.797 508.188 107.421C507.623 107.034 506.909 106.845 506.056 106.845C505.074 106.845 504.202 107.093 503.438 107.579C502.655 108.065 502.1 108.799 501.743 109.781C501.386 110.762 501.197 112.2 501.207 114.114L501.197 125.517H495.297V93.1618H501.207ZM524.47 93.1618V105.646C526.374 103.375 528.645 102.235 531.292 102.235C532.651 102.235 533.87 102.492 534.971 103.008C536.062 103.524 536.885 104.178 537.43 104.971C537.985 105.775 538.362 106.657 538.57 107.629C538.769 108.601 538.878 110.098 538.878 112.141V125.487H532.978V113.489C532.978 111.099 532.869 109.592 532.641 108.948C532.413 108.303 532.026 107.797 531.451 107.421C530.886 107.034 530.172 106.846 529.319 106.846C528.337 106.846 527.465 107.093 526.701 107.579C525.928 108.065 525.372 108.799 525.006 109.781C524.649 110.762 524.47 112.2 524.47 114.114V125.517H518.57V93.1618H524.47Z" fill="white"></path> <path d="M540.488 241.091C540.488 227.343 529.408 216.195 515.743 216.195C502.078 216.195 490.998 227.343 490.998 241.091C490.998 253.516 500.045 263.816 511.877 265.686V248.289H505.592V241.091H511.877V235.605C511.877 229.366 515.573 225.918 521.224 225.918C523.931 225.918 526.764 226.404 526.764 226.404V232.531H523.642C520.57 232.531 519.609 234.45 519.609 236.421V241.091H526.471L525.375 248.289H519.609V265.686C531.441 263.82 540.488 253.52 540.488 241.091Z" fill="white"></path> <g clip-path="url(#clip0)"> <path d="M142.555 72.7303C142.109 72.3631 141.519 72.2107 140.949 72.3162L109.692 78.1769C108.766 78.3488 108.098 79.1537 108.098 80.0953V123.074C108.098 124.012 108.766 124.82 109.692 124.992L140.949 130.853C141.066 130.876 141.191 130.888 141.308 130.888C141.758 130.888 142.203 130.732 142.555 130.439C143.004 130.068 143.262 129.513 143.262 128.935V74.2346C143.262 73.6524 143.004 73.1015 142.555 72.7303ZM139.355 126.579L112.005 121.452V81.7168L139.355 76.5906V126.579Z" fill="white"></path> <path d="M168.658 80.0952H141.308C140.23 80.0952 139.355 80.9704 139.355 82.0488C139.355 83.1272 140.23 84.0024 141.308 84.0024H166.705V119.167H141.308C140.23 119.167 139.355 120.042 139.355 121.12C139.355 122.199 140.23 123.074 141.308 123.074H168.658C169.737 123.074 170.612 122.199 170.612 121.12V82.0488C170.612 80.9704 169.737 80.0952 168.658 80.0952Z" fill="white"></path> <path d="M149.123 87.9095H141.308C140.23 87.9095 139.355 88.7847 139.355 89.8631C139.355 90.9415 140.23 91.8167 141.308 91.8167H149.123C150.201 91.8167 151.076 90.9415 151.076 89.8631C151.076 88.7847 150.201 87.9095 149.123 87.9095Z" fill="white"></path> <path d="M149.123 95.7239H141.308C140.23 95.7239 139.355 96.5991 139.355 97.6774C139.355 98.7558 140.23 99.631 141.308 99.631H149.123C150.201 99.631 151.076 98.7558 151.076 97.6774C151.076 96.5991 150.201 95.7239 149.123 95.7239Z" fill="white"></path> <path d="M149.123 103.538H141.308C140.23 103.538 139.355 104.413 139.355 105.492C139.355 106.57 140.23 107.445 141.308 107.445H149.123C150.201 107.445 151.076 106.57 151.076 105.492C151.076 104.413 150.201 103.538 149.123 103.538Z" fill="white"></path> <path d="M149.123 111.352H141.308C140.23 111.352 139.355 112.228 139.355 113.306C139.355 114.384 140.23 115.26 141.308 115.26H149.123C150.201 115.26 151.076 114.384 151.076 113.306C151.076 112.228 150.201 111.352 149.123 111.352Z" fill="white"></path> <path d="M160.844 87.9095H156.937C155.859 87.9095 154.983 88.7847 154.983 89.8631C154.983 90.9415 155.859 91.8167 156.937 91.8167H160.844C161.922 91.8167 162.798 90.9415 162.798 89.8631C162.798 88.7847 161.922 87.9095 160.844 87.9095Z" fill="white"></path> <path d="M160.844 95.7239H156.937C155.859 95.7239 154.983 96.5991 154.983 97.6774C154.983 98.7558 155.859 99.631 156.937 99.631H160.844C161.922 99.631 162.798 98.7558 162.798 97.6774C162.798 96.5991 161.922 95.7239 160.844 95.7239Z" fill="white"></path> <path d="M160.844 103.538H156.937C155.859 103.538 154.983 104.413 154.983 105.492C154.983 106.57 155.859 107.445 156.937 107.445H160.844C161.922 107.445 162.798 106.57 162.798 105.492C162.798 104.413 161.922 103.538 160.844 103.538Z" fill="white"></path> <path d="M160.844 111.352H156.937C155.859 111.352 154.983 112.228 154.983 113.306C154.983 114.384 155.859 115.26 156.937 115.26H160.844C161.922 115.26 162.798 114.384 162.798 113.306C162.798 112.228 161.922 111.352 160.844 111.352Z" fill="white"></path> <path d="M134.967 108.113L121.292 92.4848C120.573 91.6682 119.342 91.5901 118.534 92.3012C117.721 93.0123 117.639 94.2469 118.35 95.0557L132.025 110.684C132.412 111.126 132.951 111.352 133.494 111.352C133.951 111.352 134.408 111.192 134.783 110.868C135.596 110.157 135.678 108.926 134.967 108.113Z" fill="white"></path> <path d="M134.694 90.2773C133.842 89.6092 132.615 89.7694 131.951 90.6172L118.276 108.199C117.615 109.051 117.768 110.282 118.62 110.942C118.979 111.22 119.401 111.352 119.819 111.352C120.397 111.352 120.976 111.095 121.359 110.602L135.034 93.0201C135.698 92.1645 135.545 90.9376 134.694 90.2773Z" fill="white"></path> </g> <path d="M312.287 0H260.761C257.732 0 255.267 2.48306 255.267 5.53512V38.7458C255.267 41.7979 257.732 44.281 260.761 44.281H312.287C315.316 44.281 317.781 41.7979 317.781 38.7458V5.53512C317.781 2.48306 315.316 0 312.287 0ZM306.332 3.69008L286.524 23.5449L266.715 3.69008H306.332ZM262.471 40.5909H260.761C259.751 40.5909 258.93 39.7632 258.93 38.7458V11.5015L262.471 15.0152V40.5909ZM306.67 40.5909H266.011V18.6867L280.048 32.6695C281.774 34.4105 284.074 35.3693 286.524 35.3693C288.974 35.3693 291.273 34.4105 292.995 32.6736L306.67 19.0022V40.5909ZM314.118 38.7458C314.118 39.7632 313.296 40.5909 312.287 40.5909H310.333V15.3307L314.118 11.5015V38.7458ZM314.118 6.29614L290.408 30.0619C289.374 31.1048 287.994 31.6792 286.524 31.6792C285.053 31.6792 283.674 31.1049 282.636 30.0578L258.93 6.29614V5.53512C258.93 4.51777 259.751 3.69008 260.761 3.69008H261.522L286.524 28.7504L311.526 3.69008H312.287C313.296 3.69008 314.118 4.51777 314.118 5.53512V6.29614Z" fill="white"></path> <path d="M416.681 41.5669H410.449V21.4461H416.681V41.5669ZM417.303 15.0356C417.303 13.021 415.669 11.3857 413.655 11.3857C411.634 11.3857 410.003 13.021 410.003 15.0356C410.003 17.051 411.634 18.6862 413.655 18.6862C415.669 18.6862 417.303 17.051 417.303 15.0356ZM440.006 30.4973C440.006 25.096 438.865 21.09 432.556 21.09C429.524 21.09 427.489 22.6063 426.658 24.1831H426.652V21.4461H420.598V41.5669H426.652V31.5768C426.652 28.9605 427.318 26.4259 430.561 26.4259C433.76 26.4259 433.863 29.4178 433.863 31.743V41.5669H440.006V30.4973ZM448.019 44.1488V9.24902C448.019 6.30338 445.623 3.90723 442.677 3.90723H407.778C404.832 3.90723 402.436 6.30338 402.436 9.24902V44.1488C402.436 47.0944 404.832 49.4906 407.778 49.4906H442.677C445.623 49.4906 448.019 47.0944 448.019 44.1488V44.1488ZM442.677 7.46843C443.659 7.46843 444.458 8.26726 444.458 9.24902V44.1488C444.458 45.1305 443.659 45.9294 442.677 45.9294H407.778C406.796 45.9294 405.997 45.1305 405.997 44.1488V9.24902C405.997 8.26726 406.796 7.46843 407.778 7.46843H442.677Z" fill="white"></path> <g clip-path="url(#clip1)"> <path d="M31.2261 195.566L57.4233 222.084C57.5959 222.259 57.6961 222.5 57.6961 222.755C57.6961 223.01 57.5959 223.251 57.4233 223.426L48.7128 232.244L48.4074 232.553L29.7537 251.435L20.1006 241.663L2.08421 223.426C2.0842 223.426 2.08418 223.426 2.08416 223.426C1.91156 223.251 1.8114 223.01 1.8114 222.755C1.8114 222.5 1.91158 222.259 2.08421 222.084L11.1001 212.958L29.7537 194.076L31.2261 195.566ZM28.6867 232.92L29.7537 234L30.8208 232.92L39.8213 223.81L40.8628 222.755L39.8213 221.701L30.8208 212.59L29.7537 211.51L28.6867 212.59L19.6862 221.701L18.6447 222.755L19.6862 223.81L28.6867 232.92Z" stroke="white" stroke-width="3"></path> <path d="M30.7504 213.564C27.9196 210.853 26.324 207.179 26.312 203.346C26.2999 199.512 27.8724 195.83 30.6861 193.102" stroke="white" stroke-width="3"></path> <path d="M29.7538 232.891C31.1621 234.177 32.2793 235.703 33.0416 237.383C33.8038 239.062 34.1961 240.863 34.1961 242.681C34.1961 244.499 33.8038 246.3 33.0416 247.979C32.2793 249.659 31.1621 251.185 29.7538 252.47" stroke="white" stroke-width="3"></path> </g> <defs> <clipPath id="clip0"> <rect width="62.5143" height="62.5143" fill="white" transform="translate(108.098 70.3286)"></rect> </clipPath> <clipPath id="clip1"> <rect width="59.9095" height="62.5143" fill="white" transform="translate(0 191.45)"></rect> </clipPath> </defs> </svg> 